<mxfile host="app.diagrams.net" modified="2024-05-03T06:33:28.986Z" agent="Mozilla/5.0 (Windows NT 10.0; Win64; x64) AppleWebKit/537.36 (KHTML, like Gecko) Chrome/124.0.0.0 Safari/537.36" version="24.3.1" etag="hkKsybGs-sJ71MgthfMa" type="device">
  <diagram id="jcaqtdzHv28gtCzMy6ST" name="Page-1">
    <mxGraphModel dx="665" dy="1868" grid="1" gridSize="10" guides="1" tooltips="1" connect="1" arrows="1" fold="1" page="1" pageScale="1" pageWidth="850" pageHeight="1100" math="0" shadow="0">
      <root>
        <mxCell id="0" />
        <mxCell id="1" parent="0" />
        <mxCell id="5-6L-4drplHcQIytJ7j7-16" value="View Booking" style="ellipse;whiteSpace=wrap;html=1;" vertex="1" parent="1">
          <mxGeometry x="1540" y="-100" width="410" height="80" as="geometry" />
        </mxCell>
        <mxCell id="5-6L-4drplHcQIytJ7j7-17" value="Book Car&lt;span style=&quot;white-space: pre;&quot;&gt;&#x9;&lt;/span&gt;" style="ellipse;whiteSpace=wrap;html=1;" vertex="1" parent="1">
          <mxGeometry x="1550" y="-410" width="410" height="80" as="geometry" />
        </mxCell>
        <mxCell id="5-6L-4drplHcQIytJ7j7-18" value="Cancel Booking" style="ellipse;whiteSpace=wrap;html=1;" vertex="1" parent="1">
          <mxGeometry x="1550" y="-190" width="410" height="80" as="geometry" />
        </mxCell>
        <mxCell id="5-6L-4drplHcQIytJ7j7-19" value="Make Payment" style="ellipse;whiteSpace=wrap;html=1;" vertex="1" parent="1">
          <mxGeometry x="1550" y="-300" width="410" height="80" as="geometry" />
        </mxCell>
        <mxCell id="5-6L-4drplHcQIytJ7j7-20" value="&lt;font style=&quot;font-size: 14px;&quot;&gt;Search Car&lt;/font&gt;" style="ellipse;whiteSpace=wrap;html=1;" vertex="1" parent="1">
          <mxGeometry x="1560" y="-550" width="410" height="80" as="geometry" />
        </mxCell>
        <mxCell id="5-6L-4drplHcQIytJ7j7-21" value="Login" style="ellipse;whiteSpace=wrap;html=1;" vertex="1" parent="1">
          <mxGeometry x="1540" y="10" width="410" height="80" as="geometry" />
        </mxCell>
        <mxCell id="5-6L-4drplHcQIytJ7j7-22" value="Register" style="ellipse;whiteSpace=wrap;html=1;" vertex="1" parent="1">
          <mxGeometry x="1530" y="220" width="410" height="80" as="geometry" />
        </mxCell>
        <mxCell id="5-6L-4drplHcQIytJ7j7-23" value="Logout" style="ellipse;whiteSpace=wrap;html=1;" vertex="1" parent="1">
          <mxGeometry x="1540" y="130" width="410" height="80" as="geometry" />
        </mxCell>
        <mxCell id="5-6L-4drplHcQIytJ7j7-32" value="Add Car" style="ellipse;whiteSpace=wrap;html=1;" vertex="1" parent="1">
          <mxGeometry x="1510" y="790" width="410" height="80" as="geometry" />
        </mxCell>
        <mxCell id="5-6L-4drplHcQIytJ7j7-33" value="Update Profile" style="ellipse;whiteSpace=wrap;html=1;" vertex="1" parent="1">
          <mxGeometry x="1520" y="480" width="410" height="80" as="geometry" />
        </mxCell>
        <mxCell id="5-6L-4drplHcQIytJ7j7-34" value="My Cars" style="ellipse;whiteSpace=wrap;html=1;" vertex="1" parent="1">
          <mxGeometry x="1520" y="700" width="410" height="80" as="geometry" />
        </mxCell>
        <mxCell id="5-6L-4drplHcQIytJ7j7-35" value="Give Feedback" style="ellipse;whiteSpace=wrap;html=1;" vertex="1" parent="1">
          <mxGeometry x="1520" y="590" width="410" height="80" as="geometry" />
        </mxCell>
        <mxCell id="5-6L-4drplHcQIytJ7j7-36" value="View Profile" style="ellipse;whiteSpace=wrap;html=1;" vertex="1" parent="1">
          <mxGeometry x="1530" y="340" width="410" height="80" as="geometry" />
        </mxCell>
        <mxCell id="5-6L-4drplHcQIytJ7j7-37" value="Remove Car" style="ellipse;whiteSpace=wrap;html=1;" vertex="1" parent="1">
          <mxGeometry x="1510" y="900" width="410" height="80" as="geometry" />
        </mxCell>
        <mxCell id="5-6L-4drplHcQIytJ7j7-38" value="View All Cars" style="ellipse;whiteSpace=wrap;html=1;" vertex="1" parent="1">
          <mxGeometry x="1510" y="1020" width="410" height="80" as="geometry" />
        </mxCell>
        <mxCell id="5-6L-4drplHcQIytJ7j7-39" value="View All Hosts" style="ellipse;whiteSpace=wrap;html=1;" vertex="1" parent="1">
          <mxGeometry x="1510" y="1130" width="410" height="80" as="geometry" />
        </mxCell>
        <mxCell id="5-6L-4drplHcQIytJ7j7-40" value="Remove Hosts" style="ellipse;whiteSpace=wrap;html=1;" vertex="1" parent="1">
          <mxGeometry x="1510" y="1240" width="410" height="80" as="geometry" />
        </mxCell>
        <mxCell id="5-6L-4drplHcQIytJ7j7-41" value="View All Guests" style="ellipse;whiteSpace=wrap;html=1;" vertex="1" parent="1">
          <mxGeometry x="1510" y="1360" width="410" height="80" as="geometry" />
        </mxCell>
        <mxCell id="5-6L-4drplHcQIytJ7j7-42" value="Removel Guest" style="ellipse;whiteSpace=wrap;html=1;" vertex="1" parent="1">
          <mxGeometry x="1510" y="1500" width="410" height="80" as="geometry" />
        </mxCell>
        <mxCell id="5-6L-4drplHcQIytJ7j7-44" value="Host" style="shape=umlActor;verticalLabelPosition=bottom;verticalAlign=top;html=1;outlineConnect=0;" vertex="1" parent="1">
          <mxGeometry x="2340" y="-100" width="150" height="150" as="geometry" />
        </mxCell>
        <mxCell id="5-6L-4drplHcQIytJ7j7-47" value="guest&lt;div&gt;&lt;br&gt;&lt;/div&gt;" style="shape=umlActor;verticalLabelPosition=bottom;verticalAlign=top;html=1;outlineConnect=0;" vertex="1" parent="1">
          <mxGeometry x="970" y="-80" width="150" height="150" as="geometry" />
        </mxCell>
        <mxCell id="5-6L-4drplHcQIytJ7j7-51" value="Admin" style="shape=umlActor;verticalLabelPosition=bottom;verticalAlign=top;html=1;outlineConnect=0;" vertex="1" parent="1">
          <mxGeometry x="990" y="1140" width="150" height="150" as="geometry" />
        </mxCell>
        <mxCell id="5-6L-4drplHcQIytJ7j7-54" value="" style="endArrow=classic;html=1;rounded=0;entryX=0;entryY=0.5;entryDx=0;entryDy=0;" edge="1" parent="1" target="5-6L-4drplHcQIytJ7j7-20">
          <mxGeometry width="50" height="50" relative="1" as="geometry">
            <mxPoint x="1120" as="sourcePoint" />
            <mxPoint x="1790" y="80" as="targetPoint" />
          </mxGeometry>
        </mxCell>
        <mxCell id="5-6L-4drplHcQIytJ7j7-58" value="" style="endArrow=classic;html=1;rounded=0;entryX=0;entryY=0.5;entryDx=0;entryDy=0;" edge="1" parent="1" target="5-6L-4drplHcQIytJ7j7-17">
          <mxGeometry width="50" height="50" relative="1" as="geometry">
            <mxPoint x="1120" as="sourcePoint" />
            <mxPoint x="1790" y="-320" as="targetPoint" />
          </mxGeometry>
        </mxCell>
        <mxCell id="5-6L-4drplHcQIytJ7j7-59" value="" style="endArrow=classic;html=1;rounded=0;entryX=0;entryY=0.5;entryDx=0;entryDy=0;" edge="1" parent="1" target="5-6L-4drplHcQIytJ7j7-19">
          <mxGeometry width="50" height="50" relative="1" as="geometry">
            <mxPoint x="1120" as="sourcePoint" />
            <mxPoint x="1790" y="-320" as="targetPoint" />
            <Array as="points" />
          </mxGeometry>
        </mxCell>
        <mxCell id="5-6L-4drplHcQIytJ7j7-60" value="" style="endArrow=classic;html=1;rounded=0;entryX=0;entryY=0.5;entryDx=0;entryDy=0;" edge="1" parent="1" target="5-6L-4drplHcQIytJ7j7-18">
          <mxGeometry width="50" height="50" relative="1" as="geometry">
            <mxPoint x="1120" as="sourcePoint" />
            <mxPoint x="1790" y="-190" as="targetPoint" />
          </mxGeometry>
        </mxCell>
        <mxCell id="5-6L-4drplHcQIytJ7j7-61" value="" style="endArrow=classic;html=1;rounded=0;entryX=0;entryY=0.5;entryDx=0;entryDy=0;" edge="1" parent="1" target="5-6L-4drplHcQIytJ7j7-16">
          <mxGeometry width="50" height="50" relative="1" as="geometry">
            <mxPoint x="1120" as="sourcePoint" />
            <mxPoint x="1790" y="-190" as="targetPoint" />
          </mxGeometry>
        </mxCell>
        <mxCell id="5-6L-4drplHcQIytJ7j7-62" value="" style="endArrow=classic;html=1;rounded=0;entryX=0;entryY=0.5;entryDx=0;entryDy=0;" edge="1" parent="1" source="5-6L-4drplHcQIytJ7j7-47" target="5-6L-4drplHcQIytJ7j7-21">
          <mxGeometry width="50" height="50" relative="1" as="geometry">
            <mxPoint x="1140" y="-30" as="sourcePoint" />
            <mxPoint x="1250" y="-170" as="targetPoint" />
          </mxGeometry>
        </mxCell>
        <mxCell id="5-6L-4drplHcQIytJ7j7-63" value="" style="endArrow=classic;html=1;rounded=0;entryX=0;entryY=0.5;entryDx=0;entryDy=0;" edge="1" parent="1" target="5-6L-4drplHcQIytJ7j7-23">
          <mxGeometry width="50" height="50" relative="1" as="geometry">
            <mxPoint x="1120" as="sourcePoint" />
            <mxPoint x="1250" y="50" as="targetPoint" />
          </mxGeometry>
        </mxCell>
        <mxCell id="5-6L-4drplHcQIytJ7j7-64" value="" style="endArrow=classic;html=1;rounded=0;entryX=0;entryY=0.5;entryDx=0;entryDy=0;" edge="1" parent="1" target="5-6L-4drplHcQIytJ7j7-22">
          <mxGeometry width="50" height="50" relative="1" as="geometry">
            <mxPoint x="1120" as="sourcePoint" />
            <mxPoint x="1250" y="160" as="targetPoint" />
          </mxGeometry>
        </mxCell>
        <mxCell id="5-6L-4drplHcQIytJ7j7-66" value="" style="endArrow=classic;html=1;rounded=0;exitX=0;exitY=0.5;exitDx=0;exitDy=0;" edge="1" parent="1" source="5-6L-4drplHcQIytJ7j7-36">
          <mxGeometry width="50" height="50" relative="1" as="geometry">
            <mxPoint x="1200" y="210" as="sourcePoint" />
            <mxPoint x="1120" as="targetPoint" />
          </mxGeometry>
        </mxCell>
        <mxCell id="5-6L-4drplHcQIytJ7j7-67" value="" style="endArrow=classic;html=1;rounded=0;entryX=0;entryY=0.5;entryDx=0;entryDy=0;" edge="1" parent="1" target="5-6L-4drplHcQIytJ7j7-33">
          <mxGeometry width="50" height="50" relative="1" as="geometry">
            <mxPoint x="1120" as="sourcePoint" />
            <mxPoint x="1250" y="270" as="targetPoint" />
          </mxGeometry>
        </mxCell>
        <mxCell id="5-6L-4drplHcQIytJ7j7-68" value="" style="endArrow=classic;html=1;rounded=0;entryX=0;entryY=0.5;entryDx=0;entryDy=0;" edge="1" parent="1">
          <mxGeometry width="50" height="50" relative="1" as="geometry">
            <mxPoint x="1120" y="4" as="sourcePoint" />
            <mxPoint x="1520" y="634" as="targetPoint" />
          </mxGeometry>
        </mxCell>
        <mxCell id="5-6L-4drplHcQIytJ7j7-69" value="" style="endArrow=classic;html=1;rounded=0;entryX=1;entryY=0.5;entryDx=0;entryDy=0;" edge="1" parent="1" target="5-6L-4drplHcQIytJ7j7-23">
          <mxGeometry width="50" height="50" relative="1" as="geometry">
            <mxPoint x="2320" y="-40" as="sourcePoint" />
            <mxPoint x="2360" y="-100" as="targetPoint" />
          </mxGeometry>
        </mxCell>
        <mxCell id="5-6L-4drplHcQIytJ7j7-72" value="" style="endArrow=classic;html=1;rounded=0;entryX=1.014;entryY=0.473;entryDx=0;entryDy=0;entryPerimeter=0;" edge="1" parent="1" target="5-6L-4drplHcQIytJ7j7-22">
          <mxGeometry width="50" height="50" relative="1" as="geometry">
            <mxPoint x="2320" y="-40" as="sourcePoint" />
            <mxPoint x="2300" y="150" as="targetPoint" />
          </mxGeometry>
        </mxCell>
        <mxCell id="5-6L-4drplHcQIytJ7j7-73" value="" style="endArrow=classic;html=1;rounded=0;entryX=1;entryY=0.5;entryDx=0;entryDy=0;" edge="1" parent="1" target="5-6L-4drplHcQIytJ7j7-21">
          <mxGeometry width="50" height="50" relative="1" as="geometry">
            <mxPoint x="2320" y="-40" as="sourcePoint" />
            <mxPoint x="2300" y="150" as="targetPoint" />
          </mxGeometry>
        </mxCell>
        <mxCell id="5-6L-4drplHcQIytJ7j7-74" value="" style="endArrow=classic;html=1;rounded=0;entryX=1.014;entryY=0.534;entryDx=0;entryDy=0;entryPerimeter=0;" edge="1" parent="1" target="5-6L-4drplHcQIytJ7j7-36">
          <mxGeometry width="50" height="50" relative="1" as="geometry">
            <mxPoint x="2320" y="-40" as="sourcePoint" />
            <mxPoint x="2300" y="150" as="targetPoint" />
          </mxGeometry>
        </mxCell>
        <mxCell id="5-6L-4drplHcQIytJ7j7-75" value="" style="endArrow=classic;html=1;rounded=0;entryX=0.993;entryY=0.397;entryDx=0;entryDy=0;entryPerimeter=0;" edge="1" parent="1" target="5-6L-4drplHcQIytJ7j7-33">
          <mxGeometry width="50" height="50" relative="1" as="geometry">
            <mxPoint x="2320" y="-40" as="sourcePoint" />
            <mxPoint x="2300" y="280" as="targetPoint" />
          </mxGeometry>
        </mxCell>
        <mxCell id="5-6L-4drplHcQIytJ7j7-76" value="" style="endArrow=classic;html=1;rounded=0;exitX=1;exitY=0.5;exitDx=0;exitDy=0;" edge="1" parent="1" source="5-6L-4drplHcQIytJ7j7-34">
          <mxGeometry width="50" height="50" relative="1" as="geometry">
            <mxPoint x="1740" y="560" as="sourcePoint" />
            <mxPoint x="2320" y="-40" as="targetPoint" />
          </mxGeometry>
        </mxCell>
        <mxCell id="5-6L-4drplHcQIytJ7j7-77" value="" style="endArrow=classic;html=1;rounded=0;entryX=1;entryY=0.5;entryDx=0;entryDy=0;" edge="1" parent="1" target="5-6L-4drplHcQIytJ7j7-32">
          <mxGeometry width="50" height="50" relative="1" as="geometry">
            <mxPoint x="2320" y="-40" as="sourcePoint" />
            <mxPoint x="1790" y="510" as="targetPoint" />
          </mxGeometry>
        </mxCell>
        <mxCell id="5-6L-4drplHcQIytJ7j7-78" value="" style="endArrow=classic;html=1;rounded=0;exitX=1;exitY=0.5;exitDx=0;exitDy=0;" edge="1" parent="1" source="5-6L-4drplHcQIytJ7j7-37">
          <mxGeometry width="50" height="50" relative="1" as="geometry">
            <mxPoint x="1740" y="160" as="sourcePoint" />
            <mxPoint x="2320" y="-40" as="targetPoint" />
          </mxGeometry>
        </mxCell>
        <mxCell id="5-6L-4drplHcQIytJ7j7-80" value="" style="endArrow=classic;html=1;rounded=0;entryX=0;entryY=0.5;entryDx=0;entryDy=0;" edge="1" parent="1" target="5-6L-4drplHcQIytJ7j7-38">
          <mxGeometry width="50" height="50" relative="1" as="geometry">
            <mxPoint x="1140" y="1220" as="sourcePoint" />
            <mxPoint x="1790" y="1050" as="targetPoint" />
          </mxGeometry>
        </mxCell>
        <mxCell id="5-6L-4drplHcQIytJ7j7-81" value="" style="endArrow=classic;html=1;rounded=0;entryX=0;entryY=0.5;entryDx=0;entryDy=0;" edge="1" parent="1" target="5-6L-4drplHcQIytJ7j7-39">
          <mxGeometry width="50" height="50" relative="1" as="geometry">
            <mxPoint x="1140" y="1220" as="sourcePoint" />
            <mxPoint x="1790" y="1050" as="targetPoint" />
          </mxGeometry>
        </mxCell>
        <mxCell id="5-6L-4drplHcQIytJ7j7-82" value="" style="endArrow=classic;html=1;rounded=0;exitX=0;exitY=0.5;exitDx=0;exitDy=0;" edge="1" parent="1" source="5-6L-4drplHcQIytJ7j7-40">
          <mxGeometry width="50" height="50" relative="1" as="geometry">
            <mxPoint x="1740" y="1100" as="sourcePoint" />
            <mxPoint x="1140" y="1220" as="targetPoint" />
          </mxGeometry>
        </mxCell>
        <mxCell id="5-6L-4drplHcQIytJ7j7-83" value="" style="endArrow=classic;html=1;rounded=0;exitX=0;exitY=0.5;exitDx=0;exitDy=0;" edge="1" parent="1" source="5-6L-4drplHcQIytJ7j7-41">
          <mxGeometry width="50" height="50" relative="1" as="geometry">
            <mxPoint x="1740" y="1100" as="sourcePoint" />
            <mxPoint x="1140" y="1220" as="targetPoint" />
          </mxGeometry>
        </mxCell>
        <mxCell id="5-6L-4drplHcQIytJ7j7-84" value="" style="endArrow=classic;html=1;rounded=0;entryX=0;entryY=0.5;entryDx=0;entryDy=0;" edge="1" parent="1" target="5-6L-4drplHcQIytJ7j7-42">
          <mxGeometry width="50" height="50" relative="1" as="geometry">
            <mxPoint x="1150" y="1230" as="sourcePoint" />
            <mxPoint x="1790" y="1250" as="targetPoint" />
          </mxGeometry>
        </mxCell>
      </root>
    </mxGraphModel>
  </diagram>
</mxfile>
